<svg xmlns="http://www.w3.org/2000/svg" viewBox="0 0 64 64">
  <rect width="64" height="64" fill="#0F172A" rx="8"/> <path fill="#D97706" d="M32,6C17.6,6,6,17.6,6,32s11.6,26,26,26s26-11.6,26-26S46.4,6,32,6z M32,54c-12.1,0-22-9.9-22-22 S19.9,10,32,10s22,9.9,22,22S44.1,54,32,54z"/>
  <path fill="#D97706" d="M32,10c-3.7,6.3-6.4,13.9-7.6,22h15.2C38.4,23.9,35.7,16.3,32,10z"/>
  <path fill="#D97706" d="M24.4,36c1.2,8.1,3.9,15.7,7.6,22c3.7-6.3,6.4-13.9,7.6-22H24.4z"/>
  <path fill="#D97706" d="M10.3,32c0.8,7,3,13.5,6.3,19.1l0,0C13.9,46,11.6,39.4,10.3,32z"/>
  <path fill="#D97706" d="M47.4,51.1C50.7,45.5,52.9,39,53.7,32c-1.3,7.4-3.6,14-6.3,19.1L47.4,51.1z"/>
  <path fill="#D97706" d="M16.6,12.9C13.3,18.5,11.1,25,10.3,32h9.4C20.4,24.8,22.5,18.2,16.6,12.9L16.6,12.9z"/>
  <path fill="#D97706" d="M44.3,32h9.4c-0.8-7-3-13.5-6.3-19.1l0,0C50.3,18.2,52.4,24.8,53.7,32z"/>
</svg>